<svg width="27" height="27" xmlns="http://www.w3.org/2000/svg" xmlns:xlink="http://www.w3.org/1999/xlink" xmlns:svgjs="http://svgjs.com/svgjs" fill="#f38181"><svg xmlns="http://www.w3.org/2000/svg" width="27" height="27" viewBox="1.3 1.2 25.6 25.6"><path paint-order="stroke fill markers" fill-rule="evenodd" d="M23.7 26.8H4.5a3.2 3.2 0 0 1-3.2-3.2V4.4a3.2 3.2 0 0 1 3.2-3.2h19.2a3.2 3.2 0 0 1 3.2 3.2v19.2a3.2 3.2 0 0 1-3.2 3.2zM14.1 9.04a4.957 4.957 0 0 0-4.498 2.88h-.005l-.022.054a4.912 4.912 0 0 0-.128.322c-.02.052-.04.103-.057.155a5.003 5.003 0 0 0-.095.34c-.014.054-.03.106-.042.16a4.987 4.987 0 0 0-.061.368c-.007.05-.017.099-.023.15a4.96 4.96 0 1 0 9.861 0c-.005-.051-.015-.1-.022-.15a4.987 4.987 0 0 0-.061-.368c-.012-.054-.028-.106-.042-.16a5.003 5.003 0 0 0-.095-.34c-.017-.052-.038-.103-.057-.155a4.912 4.912 0 0 0-.128-.322l-.022-.055h-.005A4.957 4.957 0 0 0 14.1 9.04zm9.92-3.68a1.28 1.28 0 0 0-1.28-1.28h-2.56a1.28 1.28 0 0 0-1.28 1.28v2.56c0 .707.573 1.28 1.28 1.28h2.56a1.28 1.28 0 0 0 1.28-1.28V5.36zm0 6.56h-2.36a7.84 7.84 0 0 1-7.56 9.92 7.84 7.84 0 0 1-7.56-9.92H4.18v10.72c0 .707.573 1.28 1.28 1.28h17.28a1.28 1.28 0 0 0 1.28-1.28V11.92z"/></svg></svg>