<svg width="27" height="23" xmlns="http://www.w3.org/2000/svg" xmlns:xlink="http://www.w3.org/1999/xlink" xmlns:svgjs="http://svgjs.com/svgjs" viewBox="0 0.543 27 21.914" fill="#f38181"><svg xmlns="http://www.w3.org/2000/svg" width="27" height="23" viewBox="1.1 1.6 25.6 20.778"><path paint-order="stroke fill markers" fill-rule="evenodd" d="M18.513 1.601c2.034-.036 3.117.705 4.15 1.648.879-.076 2.02-.566 2.692-.908l.653-.357c-.384 1.037-.904 1.85-1.704 2.466-.178.136-.354.321-.577.408v.013c1.14-.011 2.08-.526 2.973-.805v.013c-.469.745-1.104 1.502-1.781 2.044l-.82.651c.015 1.207-.018 2.359-.243 3.373-1.312 5.895-4.788 9.898-10.29 11.612-1.975.615-5.167.868-7.43.306-1.123-.278-2.137-.593-3.088-1.008a12.304 12.304 0 0 1-1.487-.767l-.461-.281c.51.015 1.108.156 1.678.064.517-.084 1.023-.062 1.5-.166 1.188-.261 2.243-.606 3.151-1.137.441-.259 1.11-.56 1.423-.933-.59.01-1.125-.127-1.563-.281-1.7-.6-2.688-1.703-3.332-3.36.515.057 1.998.19 2.345-.102-.648-.036-1.271-.411-1.717-.69-1.367-.855-2.481-2.289-2.473-4.496l.538.255c.344.145.693.222 1.102.307.173.036.52.137.718.063h-.026c-.264-.307-.695-.512-.96-.843-.878-1.09-1.7-2.766-1.18-4.764a6.1 6.1 0 0 1 .564-1.367l.026.012c.102.214.33.371.474.55.448.555 1 1.054 1.563 1.494 1.918 1.5 3.645 2.422 6.42 3.104.703.174 1.516.306 2.357.307-.236-.687-.16-1.8.025-2.465.468-1.674 1.483-2.88 2.973-3.525a6.31 6.31 0 0 1 1.166-.359l.64-.076z"/></svg></svg>